<svg width="213" height="24" viewBox="0 0 213 24" fill="none" xmlns="http://www.w3.org/2000/svg">
<path d="M3.54279 23H0.048473L7.90004 1.18182H11.7033L19.5549 23H16.0605L9.89222 5.14489H9.72177L3.54279 23ZM4.12873 14.456H15.464V17.2259H4.12873V14.456ZM22.141 23V20.8054L33.6147 4.01562H22.0451V1.18182H37.6417V3.37642L26.168 20.1662H37.7376V23H22.141ZM43.7088 23H40.2145L48.0661 1.18182H51.8693L59.7209 23H56.2266L50.0582 5.14489H49.8878L43.7088 23ZM44.2947 14.456H55.63V17.2259H44.2947V14.456ZM69.9348 23H62.8716V1.18182H70.1586C72.2963 1.18182 74.1323 1.61861 75.6664 2.49219C77.2005 3.35866 78.3759 4.60511 79.1926 6.23153C80.0165 7.85085 80.4284 9.79332 80.4284 12.0589C80.4284 14.3317 80.013 16.2848 79.182 17.9183C78.3581 19.5518 77.165 20.8089 75.6025 21.6896C74.04 22.5632 72.1507 23 69.9348 23ZM66.1635 20.1236H69.7537C71.4157 20.1236 72.7971 19.8111 73.8979 19.1861C74.9988 18.554 75.8226 17.6413 76.3695 16.4482C76.9164 15.2479 77.1898 13.7848 77.1898 12.0589C77.1898 10.3473 76.9164 8.89489 76.3695 7.7017C75.8297 6.50852 75.0236 5.60298 73.9512 4.98508C72.8787 4.36719 71.5471 4.05824 69.9561 4.05824H66.1635V20.1236ZM104.361 6.91335C104.248 5.90483 103.779 5.12358 102.955 4.5696C102.131 4.00852 101.094 3.72798 99.8443 3.72798C98.9494 3.72798 98.1752 3.87003 97.5218 4.15412C96.8684 4.43111 96.3606 4.81463 95.9984 5.30469C95.6433 5.78764 95.4657 6.33807 95.4657 6.95597C95.4657 7.47443 95.5865 7.92187 95.8279 8.29829C96.0765 8.67472 96.3997 8.99077 96.7974 9.24645C97.2022 9.49503 97.6355 9.70455 98.0971 9.875C98.5588 10.0384 99.0027 10.1733 99.4288 10.2798L101.559 10.8338C102.256 11.0043 102.969 11.2351 103.701 11.5263C104.432 11.8175 105.111 12.201 105.736 12.6768C106.361 13.1527 106.865 13.7422 107.248 14.4453C107.639 15.1484 107.834 15.9901 107.834 16.9702C107.834 18.206 107.515 19.3033 106.876 20.2621C106.243 21.2209 105.324 21.9773 104.116 22.5312C102.916 23.0852 101.464 23.3622 99.7591 23.3622C98.1255 23.3622 96.7122 23.103 95.519 22.5845C94.3258 22.0661 93.3919 21.331 92.7172 20.3793C92.0424 19.4205 91.6696 18.2841 91.5985 16.9702H94.9011C94.965 17.7585 95.2207 18.4155 95.6681 18.9411C96.1227 19.4595 96.7015 19.8466 97.4047 20.1023C98.1149 20.3509 98.8926 20.4751 99.7377 20.4751C100.668 20.4751 101.496 20.3295 102.22 20.0384C102.952 19.7401 103.527 19.3281 103.946 18.8026C104.365 18.2699 104.574 17.6484 104.574 16.9382C104.574 16.2919 104.39 15.7628 104.02 15.3509C103.658 14.9389 103.165 14.598 102.54 14.3281C101.922 14.0582 101.222 13.8203 100.441 13.6143L97.8627 12.9112C96.1156 12.4354 94.7306 11.7358 93.7079 10.8125C92.6923 9.8892 92.1845 8.66761 92.1845 7.14773C92.1845 5.89062 92.5254 4.79332 93.2072 3.85582C93.889 2.91832 94.8123 2.19034 95.9771 1.67188C97.1419 1.14631 98.4558 0.883522 99.9189 0.883522C101.396 0.883522 102.699 1.14276 103.829 1.66122C104.965 2.17969 105.86 2.89347 106.513 3.80256C107.167 4.70454 107.508 5.74148 107.536 6.91335H104.361ZM116.04 23L109.989 1.18182H113.451L117.702 18.0781H117.904L122.326 1.18182H125.756L130.177 18.0888H130.38L134.62 1.18182H138.093L132.031 23H128.718L124.126 6.65767H123.956L119.364 23H116.04ZM141.094 23V1.18182H154.773V4.01562H144.386V10.6634H154.059V13.4865H144.386V20.1662H154.901V23H141.094ZM159.17 23V1.18182H172.849V4.01562H162.462V10.6634H172.136V13.4865H162.462V20.1662H172.977V23H159.17ZM176.171 4.01562V1.18182H193.056V4.01562H186.249V23H182.968V4.01562H176.171ZM208.688 6.91335C208.574 5.90483 208.105 5.12358 207.281 4.5696C206.457 4.00852 205.42 3.72798 204.17 3.72798C203.276 3.72798 202.501 3.87003 201.848 4.15412C201.195 4.43111 200.687 4.81463 200.325 5.30469C199.969 5.78764 199.792 6.33807 199.792 6.95597C199.792 7.47443 199.913 7.92187 200.154 8.29829C200.403 8.67472 200.726 8.99077 201.124 9.24645C201.528 9.49503 201.962 9.70455 202.423 9.875C202.885 10.0384 203.329 10.1733 203.755 10.2798L205.886 10.8338C206.582 11.0043 207.295 11.2351 208.027 11.5263C208.759 11.8175 209.437 12.201 210.062 12.6768C210.687 13.1527 211.191 13.7422 211.575 14.4453C211.965 15.1484 212.161 15.9901 212.161 16.9702C212.161 18.206 211.841 19.3033 211.202 20.2621C210.57 21.2209 209.65 21.9773 208.442 22.5312C207.242 23.0852 205.79 23.3622 204.085 23.3622C202.452 23.3622 201.038 23.103 199.845 22.5845C198.652 22.0661 197.718 21.331 197.043 20.3793C196.369 19.4205 195.996 18.2841 195.925 16.9702H199.227C199.291 17.7585 199.547 18.4155 199.994 18.9411C200.449 19.4595 201.028 19.8466 201.731 20.1023C202.441 20.3509 203.219 20.4751 204.064 20.4751C204.994 20.4751 205.822 20.3295 206.546 20.0384C207.278 19.7401 207.853 19.3281 208.272 18.8026C208.691 18.2699 208.901 17.6484 208.901 16.9382C208.901 16.2919 208.716 15.7628 208.347 15.3509C207.984 14.9389 207.491 14.598 206.866 14.3281C206.248 14.0582 205.548 13.8203 204.767 13.6143L202.189 12.9112C200.442 12.4354 199.057 11.7358 198.034 10.8125C197.018 9.8892 196.511 8.66761 196.511 7.14773C196.511 5.89062 196.852 4.79332 197.533 3.85582C198.215 2.91832 199.138 2.19034 200.303 1.67188C201.468 1.14631 202.782 0.883522 204.245 0.883522C205.722 0.883522 207.026 1.14276 208.155 1.66122C209.291 2.17969 210.186 2.89347 210.839 3.80256C211.493 4.70454 211.834 5.74148 211.862 6.91335H208.688Z" fill="black"/>
</svg>
