<svg width="268" height="33" viewBox="0 0 268 33" fill="none" xmlns="http://www.w3.org/2000/svg">
<path d="M14.61 21.51C14.25 21.51 13.92 21.43 13.62 21.27C13.34 21.13 13.07 20.94 12.81 20.7C12.45 20.36 12.05 19.91 11.61 19.35C11.17 18.79 10.71 18.19 10.23 17.55C9.77 16.89 9.33 16.25 8.91 15.63C8.51 14.99 8.17 14.43 7.89 13.95C7.75 13.95 7.59 13.94 7.41 13.92C7.23 13.9 7.06 13.87 6.9 13.83C6.6 13.73 6.45 13.63 6.45 13.53C6.45 13.45 6.51 13.39 6.63 13.35C6.75 13.31 6.88 13.28 7.02 13.26C7.68 13.16 8.48 13.02 9.42 12.84C10.36 12.64 11.32 12.38 12.3 12.06C13.3 11.72 14.23 11.33 15.09 10.89C15.97 10.43 16.68 9.9 17.22 9.3C17.76 8.68 18.03 7.98 18.03 7.2C18.03 6.58 17.85 6.06 17.49 5.64C17.13 5.22 16.66 4.88 16.08 4.62C15.52 4.34 14.91 4.13 14.25 3.99C13.59 3.85 12.95 3.76 12.33 3.72C11.73 3.66 11.22 3.63 10.8 3.63C9.76 3.63 8.62 3.75 7.38 3.99C6.14 4.23 4.92 4.54 3.72 4.92C2.52 5.3 1.46 5.72 0.54 6.18C0.52 6.2 0.48 6.22 0.42 6.24C0.38 6.26 0.34 6.27 0.3 6.27C0.18 6.27 0.12 6.19 0.12 6.03C0.12 5.63 0.34 5.28 0.78 4.98C1.22 4.66 1.79 4.38 2.49 4.14C3.21 3.9 3.98 3.7 4.8 3.54C5.62 3.36 6.42 3.22 7.2 3.12C8 3.02 8.7 2.95 9.3 2.91C9.92 2.85 10.36 2.82 10.62 2.82C11.18 2.82 11.83 2.86 12.57 2.94C13.31 3 14.06 3.13 14.82 3.33C15.6 3.51 16.32 3.78 16.98 4.14C17.64 4.5 18.17 4.96 18.57 5.52C18.99 6.06 19.2 6.74 19.2 7.56C19.2 8.56 18.9 9.43 18.3 10.17C17.7 10.91 16.92 11.53 15.96 12.03C15.02 12.53 14 12.93 12.9 13.23C11.82 13.51 10.8 13.71 9.84 13.83C10.06 14.39 10.36 15.06 10.74 15.84C11.14 16.62 11.58 17.38 12.06 18.12C12.54 18.86 13.02 19.48 13.5 19.98C14 20.46 14.44 20.7 14.82 20.7C15.16 20.7 15.42 20.58 15.6 20.34C15.8 20.08 15.94 19.76 16.02 19.38C16.1 19 16.15 18.63 16.17 18.27C16.19 17.89 16.2 17.58 16.2 17.34V17.16C16.2 16.98 16.25 16.89 16.35 16.89C16.53 16.89 16.69 17 16.83 17.22C16.97 17.44 17.08 17.68 17.16 17.94C17.24 18.2 17.28 18.4 17.28 18.54C17.32 19.04 17.22 19.52 16.98 19.98C16.74 20.42 16.41 20.78 15.99 21.06C15.57 21.36 15.11 21.51 14.61 21.51ZM2.97 22.47C2.53 22.47 2.22 22.31 2.04 21.99C1.86 21.69 1.77 21.32 1.77 20.88C1.77 20.22 1.92 19.42 2.22 18.48C2.52 17.52 2.9 16.51 3.36 15.45C3.84 14.37 4.35 13.31 4.89 12.27C5.43 11.23 5.94 10.27 6.42 9.39C6.92 8.51 7.33 7.8 7.65 7.26C7.89 6.84 8.14 6.39 8.4 5.91C8.66 5.41 8.94 4.97 9.24 4.59C9.34 4.45 9.51 4.36 9.75 4.32C9.99 4.28 10.18 4.26 10.32 4.26C10.48 4.26 10.66 4.3 10.86 4.38C11.06 4.44 11.16 4.58 11.16 4.8V4.86C11.16 5.12 11.05 5.38 10.83 5.64C9.93 7.1 9.03 8.5 8.13 9.84C7.25 11.18 6.42 12.62 5.64 14.16C5.46 14.48 5.21 14.94 4.89 15.54C4.57 16.12 4.23 16.76 3.87 17.46C3.53 18.16 3.25 18.85 3.03 19.53C2.81 20.19 2.72 20.77 2.76 21.27C2.76 21.37 2.78 21.48 2.82 21.6C2.88 21.72 2.98 21.78 3.12 21.78C3.22 21.78 3.27 21.87 3.27 22.05C3.27 22.15 3.24 22.24 3.18 22.32C3.14 22.42 3.07 22.47 2.97 22.47ZM23.5113 21.27C23.3313 21.27 23.1213 21.19 22.8813 21.03C22.6613 20.87 22.4713 20.69 22.3113 20.49C22.1513 20.27 22.0713 20.07 22.0713 19.89C22.0713 19.59 22.1813 19.19 22.4013 18.69C22.6213 18.17 22.8713 17.66 23.1513 17.16C23.4513 16.66 23.6813 16.29 23.8413 16.05C23.5613 16.29 23.2013 16.68 22.7613 17.22C22.3413 17.74 21.8813 18.3 21.3813 18.9C20.9013 19.48 20.4313 19.98 19.9713 20.4C19.5313 20.82 19.1513 21.03 18.8313 21.03C18.3913 21.03 18.0313 20.88 17.7513 20.58C17.4913 20.26 17.3613 19.88 17.3613 19.44C17.3613 18.84 17.5313 18.2 17.8713 17.52C18.2113 16.82 18.6513 16.15 19.1913 15.51C19.7513 14.85 20.3513 14.25 20.9913 13.71C21.6513 13.17 22.2913 12.74 22.9113 12.42C23.5513 12.1 24.1213 11.94 24.6213 11.94C25.1613 11.94 25.6013 12.07 25.9413 12.33C26.2813 12.57 26.4513 12.94 26.4513 13.44C26.4513 13.52 26.4313 13.67 26.3913 13.89C26.3713 14.11 26.3013 14.22 26.1813 14.22C26.1213 14.22 26.0213 14.13 25.8813 13.95C25.7613 13.77 25.5913 13.59 25.3713 13.41C25.1513 13.23 24.8713 13.14 24.5313 13.14C23.9713 13.14 23.3813 13.35 22.7613 13.77C22.1613 14.17 21.5813 14.69 21.0213 15.33C20.4613 15.95 19.9713 16.59 19.5513 17.25C19.1313 17.91 18.8113 18.48 18.5913 18.96C18.5313 19.1 18.4713 19.25 18.4113 19.41C18.3713 19.57 18.3513 19.73 18.3513 19.89C18.3513 20.07 18.4013 20.16 18.5013 20.16C18.6013 20.16 18.8113 20.05 19.1313 19.83C19.4713 19.61 19.7113 19.45 19.8513 19.35C20.5513 18.85 21.2113 18.28 21.8313 17.64C22.4713 17 23.0413 16.34 23.5413 15.66C23.7013 15.44 23.8513 15.22 23.9913 15C24.1313 14.78 24.2713 14.57 24.4113 14.37C24.5113 14.23 24.6113 14.16 24.7113 14.16C24.9313 14.16 25.1413 14.31 25.3413 14.61C25.5613 14.91 25.6713 15.17 25.6713 15.39C25.6713 15.49 25.6513 15.55 25.6113 15.57C25.5913 15.59 25.5313 15.65 25.4313 15.75C25.1313 16.05 24.8313 16.47 24.5313 17.01C24.2513 17.55 24.0013 18.1 23.7813 18.66C23.5813 19.2 23.4313 19.66 23.3313 20.04C23.3113 20.1 23.2913 20.18 23.2713 20.28C23.2713 20.36 23.3213 20.39 23.4213 20.37C23.6213 20.31 23.9413 20.09 24.3813 19.71C24.8413 19.31 25.3313 18.86 25.8513 18.36C26.3913 17.84 26.8713 17.36 27.2913 16.92C27.7313 16.48 28.0213 16.17 28.1613 15.99C28.2013 15.95 28.2413 15.91 28.2813 15.87C28.3413 15.81 28.4013 15.78 28.4613 15.78C28.6013 15.78 28.6713 15.85 28.6713 15.99C28.6713 16.07 28.5113 16.31 28.1913 16.71C27.8713 17.09 27.4713 17.54 26.9913 18.06C26.5113 18.56 26.0213 19.06 25.5213 19.56C25.0213 20.04 24.5813 20.45 24.2013 20.79C23.8413 21.11 23.6113 21.27 23.5113 21.27ZM32.1949 9.69C31.7349 9.69 31.5049 9.52 31.5049 9.18C31.5049 8.94 31.6349 8.68 31.8949 8.4C32.1549 8.12 32.5349 7.92 33.0349 7.8C33.3349 7.72 33.5749 7.68 33.7549 7.68C33.9549 7.66 34.1449 7.62 34.3249 7.56C34.2449 7.94 34.0749 8.35 33.8149 8.79C33.5749 9.23 33.2549 9.5 32.8549 9.6C32.6549 9.66 32.4349 9.69 32.1949 9.69ZM18.8749 32.49C17.9549 32.49 17.4949 32.03 17.4949 31.11C17.4949 31.01 17.5049 30.91 17.5249 30.81C17.5249 30.71 17.5349 30.61 17.5549 30.51C17.7149 29.79 18.0549 29.1 18.5749 28.44C19.0949 27.78 19.7049 27.16 20.4049 26.58C21.1049 26.02 21.8249 25.49 22.5649 24.99C23.2849 24.51 23.9349 24.09 24.5149 23.73C24.8549 23.51 25.2949 23.24 25.8349 22.92C26.3549 22.6 26.9149 22.25 27.5149 21.87C28.1149 21.51 28.6849 21.17 29.2249 20.85C29.4249 20.41 29.6149 19.86 29.7949 19.2C29.9949 18.54 30.1649 17.88 30.3049 17.22C30.4449 16.54 30.5249 15.96 30.5449 15.48C30.4649 15.34 30.3749 15.19 30.2749 15.03C30.1749 14.87 30.1249 14.71 30.1249 14.55C30.1249 14.35 30.1749 14.1 30.2749 13.8C30.3749 13.5 30.5149 13.24 30.6949 13.02C30.8749 12.78 31.0849 12.66 31.3249 12.66C31.3649 12.66 31.4049 12.67 31.4449 12.69C31.4849 12.69 31.5249 12.69 31.5649 12.69C31.8449 12.75 32.0249 12.83 32.1049 12.93C32.2049 13.01 32.2549 13.21 32.2549 13.53C32.2549 14.45 32.1449 15.44 31.9249 16.5C31.7049 17.56 31.4549 18.53 31.1749 19.41C31.5749 19.09 31.9449 18.78 32.2849 18.48C32.6449 18.18 32.9949 17.85 33.3349 17.49C33.6549 17.17 33.9549 16.84 34.2349 16.5C34.5349 16.16 34.8449 15.84 35.1649 15.54C35.2049 15.5 35.2449 15.47 35.2849 15.45C35.3449 15.41 35.4049 15.39 35.4649 15.39C35.5849 15.39 35.6449 15.45 35.6449 15.57C35.6449 15.67 35.4949 15.89 35.1949 16.23C34.9149 16.55 34.5549 16.93 34.1149 17.37C33.6949 17.81 33.2449 18.26 32.7649 18.72C32.3049 19.16 31.8849 19.56 31.5049 19.92C31.1449 20.26 30.8949 20.49 30.7549 20.61C29.8349 23.03 28.6349 25.13 27.1549 26.91C25.6949 28.71 23.8349 30.26 21.5749 31.56C21.1949 31.78 20.7649 31.99 20.2849 32.19C19.8049 32.39 19.3349 32.49 18.8749 32.49ZM19.5649 31.74C20.1049 31.74 20.6949 31.54 21.3349 31.14C21.9549 30.76 22.5749 30.28 23.1949 29.7C23.8149 29.12 24.3849 28.54 24.9049 27.96C25.4049 27.4 25.8049 26.93 26.1049 26.55C26.4449 26.09 26.7749 25.63 27.0949 25.17C27.4149 24.73 27.7149 24.27 27.9949 23.79C28.4149 23.09 28.7649 22.41 29.0449 21.75C29.0649 21.69 29.0449 21.65 28.9849 21.63C28.9449 21.63 28.9249 21.63 28.9249 21.63C28.3049 22.07 27.6749 22.5 27.0349 22.92C26.4149 23.36 25.7849 23.79 25.1449 24.21C24.8249 24.41 24.3949 24.7 23.8549 25.08C23.3149 25.48 22.7349 25.92 22.1149 26.4C21.4949 26.9 20.9049 27.41 20.3449 27.93C19.7849 28.47 19.3249 28.99 18.9649 29.49C18.6049 30.01 18.4249 30.47 18.4249 30.87C18.4249 31.19 18.5549 31.41 18.8149 31.53C19.0549 31.67 19.3049 31.74 19.5649 31.74ZM39.5074 21.27C39.3274 21.27 39.1174 21.19 38.8774 21.03C38.6574 20.87 38.4674 20.69 38.3074 20.49C38.1474 20.27 38.0674 20.07 38.0674 19.89C38.0674 19.59 38.1774 19.19 38.3974 18.69C38.6174 18.17 38.8674 17.66 39.1474 17.16C39.4474 16.66 39.6774 16.29 39.8374 16.05C39.5574 16.29 39.1974 16.68 38.7574 17.22C38.3374 17.74 37.8774 18.3 37.3774 18.9C36.8974 19.48 36.4274 19.98 35.9674 20.4C35.5274 20.82 35.1474 21.03 34.8274 21.03C34.3874 21.03 34.0274 20.88 33.7474 20.58C33.4874 20.26 33.3574 19.88 33.3574 19.44C33.3574 18.84 33.5274 18.2 33.8674 17.52C34.2074 16.82 34.6474 16.15 35.1874 15.51C35.7474 14.85 36.3474 14.25 36.9874 13.71C37.6474 13.17 38.2874 12.74 38.9074 12.42C39.5474 12.1 40.1174 11.94 40.6174 11.94C41.1574 11.94 41.5974 12.07 41.9374 12.33C42.2774 12.57 42.4474 12.94 42.4474 13.44C42.4474 13.52 42.4274 13.67 42.3874 13.89C42.3674 14.11 42.2974 14.22 42.1774 14.22C42.1174 14.22 42.0174 14.13 41.8774 13.95C41.7574 13.77 41.5874 13.59 41.3674 13.41C41.1474 13.23 40.8674 13.14 40.5274 13.14C39.9674 13.14 39.3774 13.35 38.7574 13.77C38.1574 14.17 37.5774 14.69 37.0174 15.33C36.4574 15.95 35.9674 16.59 35.5474 17.25C35.1274 17.91 34.8074 18.48 34.5874 18.96C34.5274 19.1 34.4674 19.25 34.4074 19.41C34.3674 19.57 34.3474 19.73 34.3474 19.89C34.3474 20.07 34.3974 20.16 34.4974 20.16C34.5974 20.16 34.8074 20.05 35.1274 19.83C35.4674 19.61 35.7074 19.45 35.8474 19.35C36.5474 18.85 37.2074 18.28 37.8274 17.64C38.4674 17 39.0374 16.34 39.5374 15.66C39.6974 15.44 39.8474 15.22 39.9874 15C40.1274 14.78 40.2674 14.57 40.4074 14.37C40.5074 14.23 40.6074 14.16 40.7074 14.16C40.9274 14.16 41.1374 14.31 41.3374 14.61C41.5574 14.91 41.6674 15.17 41.6674 15.39C41.6674 15.49 41.6474 15.55 41.6074 15.57C41.5874 15.59 41.5274 15.65 41.4274 15.75C41.1274 16.05 40.8274 16.47 40.5274 17.01C40.2474 17.55 39.9974 18.1 39.7774 18.66C39.5774 19.2 39.4274 19.66 39.3274 20.04C39.3074 20.1 39.2874 20.18 39.2674 20.28C39.2674 20.36 39.3174 20.39 39.4174 20.37C39.6174 20.31 39.9374 20.09 40.3774 19.71C40.8374 19.31 41.3274 18.86 41.8474 18.36C42.3874 17.84 42.8674 17.36 43.2874 16.92C43.7274 16.48 44.0174 16.17 44.1574 15.99C44.1974 15.95 44.2374 15.91 44.2774 15.87C44.3374 15.81 44.3974 15.78 44.4574 15.78C44.5974 15.78 44.6674 15.85 44.6674 15.99C44.6674 16.07 44.5074 16.31 44.1874 16.71C43.8674 17.09 43.4674 17.54 42.9874 18.06C42.5074 18.56 42.0174 19.06 41.5174 19.56C41.0174 20.04 40.5774 20.45 40.1974 20.79C39.8374 21.11 39.6074 21.27 39.5074 21.27ZM47.591 22.26C47.351 22.26 47.101 22.2 46.841 22.08C46.601 21.98 46.361 21.84 46.121 21.66C45.861 21.44 45.611 21.13 45.371 20.73C45.131 20.33 44.931 19.91 44.771 19.47L42.461 21.99C42.401 22.05 42.361 22.08 42.341 22.08C42.261 22.08 42.221 22.02 42.221 21.9C42.221 21.72 42.281 21.57 42.401 21.45L44.621 18.93C44.561 18.69 44.531 18.46 44.531 18.24C44.391 18.14 44.201 18.02 43.961 17.88C43.741 17.72 43.631 17.46 43.631 17.1C43.631 16.68 43.761 16.27 44.021 15.87C44.281 15.47 44.501 15.27 44.681 15.27C44.821 15.27 44.891 15.39 44.891 15.63C44.891 15.71 44.891 15.92 44.891 16.26C44.911 16.6 44.931 16.95 44.951 17.31C44.971 17.65 44.991 17.88 45.011 18C45.131 18.08 45.231 18.13 45.311 18.15C46.091 17.25 46.911 16.32 47.771 15.36C48.631 14.4 49.401 13.58 50.081 12.9C50.421 12.38 50.791 11.94 51.191 11.58C51.611 11.22 52.091 11.04 52.631 11.04C53.011 11.04 53.281 11.11 53.441 11.25C53.601 11.39 53.681 11.55 53.681 11.73C53.681 11.91 53.601 12.08 53.441 12.24C53.301 12.38 53.091 12.45 52.811 12.45C52.371 12.43 51.991 12.45 51.671 12.51C51.351 12.55 51.121 12.69 50.981 12.93C50.841 13.19 50.681 13.62 50.501 14.22C50.321 14.82 50.141 15.5 49.961 16.26C49.801 17.02 49.661 17.76 49.541 18.48C49.961 18.4 50.361 18.3 50.741 18.18C51.141 18.04 51.571 17.81 52.031 17.49C52.491 17.17 53.021 16.7 53.621 16.08C53.721 15.96 53.821 15.9 53.921 15.9C53.981 15.9 54.011 15.94 54.011 16.02C54.011 16.06 53.991 16.13 53.951 16.23C53.911 16.33 53.831 16.46 53.711 16.62C53.471 16.94 53.171 17.26 52.811 17.58C52.471 17.88 52.171 18.11 51.911 18.27C51.371 18.59 50.861 18.79 50.381 18.87C49.901 18.93 49.591 18.97 49.451 18.99C49.371 19.41 49.301 19.76 49.241 20.04C49.181 20.3 49.141 20.49 49.121 20.61C49.021 21.19 48.821 21.61 48.521 21.87C48.241 22.13 47.931 22.26 47.591 22.26ZM48.281 18.48C48.381 18.02 48.511 17.41 48.671 16.65C48.851 15.89 49.091 15.13 49.391 14.37C48.871 14.95 48.291 15.58 47.651 16.26C47.031 16.94 46.421 17.62 45.821 18.3C46.201 18.38 46.611 18.44 47.051 18.48C47.491 18.5 47.901 18.5 48.281 18.48ZM47.141 20.82C47.301 20.82 47.461 20.71 47.621 20.49C47.801 20.25 47.971 19.81 48.131 19.17C48.131 19.11 48.141 19.07 48.161 19.05C47.681 19.03 47.211 19 46.751 18.96C46.311 18.9 45.891 18.8 45.491 18.66L45.251 18.93C45.411 19.25 45.601 19.58 45.821 19.92C46.041 20.24 46.291 20.47 46.571 20.61C46.671 20.67 46.771 20.72 46.871 20.76C46.971 20.8 47.061 20.82 47.141 20.82ZM54.4118 21.78C54.0518 21.78 53.7418 21.66 53.4818 21.42C53.2418 21.18 53.0518 20.89 52.9118 20.55C52.7918 20.19 52.7318 19.85 52.7318 19.53C52.7318 19.21 52.7718 18.9 52.8518 18.6C52.9318 18.28 53.0418 17.97 53.1818 17.67C53.7018 16.51 54.2918 15.4 54.9518 14.34C55.6118 13.28 56.3118 12.21 57.0518 11.13C56.6918 11.15 56.2118 11.11 55.6118 11.01C55.0318 10.91 54.5318 10.76 54.1118 10.56C53.9118 10.46 53.7518 10.31 53.6318 10.11C53.5318 9.89 53.4818 9.71 53.4818 9.57C53.4818 9.39 53.5418 9.32 53.6618 9.36C54.3818 9.78 55.0418 10.06 55.6418 10.2C56.2618 10.32 56.9118 10.39 57.5918 10.41C58.2718 9.51 58.9918 8.62 59.7518 7.74C60.5318 6.86 61.2918 6.14 62.0318 5.58C62.1318 5.52 62.2118 5.49 62.2718 5.49C62.4318 5.49 62.5718 5.57 62.6918 5.73C62.8318 5.89 62.9018 6.06 62.9018 6.24C62.9018 6.5 62.8018 6.68 62.6018 6.78C61.4618 7.82 60.3018 9.04 59.1218 10.44C59.4618 10.46 59.8218 10.48 60.2018 10.5C60.5818 10.5 60.9618 10.5 61.3418 10.5C61.9218 10.5 62.4918 10.49 63.0518 10.47C63.6118 10.45 64.1018 10.41 64.5218 10.35C67.4218 5.77 70.1818 2.72 72.8018 1.2C73.3618 0.859999 73.8718 0.629999 74.3318 0.509999C74.7918 0.369999 75.2118 0.299998 75.5918 0.299998C76.1718 0.299998 76.6418 0.429998 77.0018 0.689999C77.3818 0.929999 77.6918 1.23 77.9318 1.59C78.0318 1.75 78.0818 1.94 78.0818 2.16C78.0818 2.7 77.8018 3.38 77.2418 4.2C76.6818 5 75.8618 5.84 74.7818 6.72C73.7018 7.58 72.3918 8.39 70.8518 9.15C69.3118 9.89 67.5618 10.47 65.6018 10.89C64.7218 12.03 63.9518 13.13 63.2918 14.19C62.6318 15.25 62.1118 16.15 61.7318 16.89C62.2918 16.37 62.9118 15.82 63.5918 15.24C64.2918 14.64 64.9718 14.06 65.6318 13.5C66.2918 12.92 66.8318 12.42 67.2518 12C67.3518 11.9 67.4818 11.83 67.6418 11.79C67.8218 11.75 67.9518 11.73 68.0318 11.73C68.3118 11.73 68.5918 11.87 68.8718 12.15C69.1718 12.43 69.3218 12.74 69.3218 13.08C69.3218 13.38 69.1918 13.65 68.9318 13.89C68.3318 14.43 67.7218 15.06 67.1018 15.78C66.4818 16.48 65.9218 17.22 65.4218 18C65.2818 18.24 65.0818 18.59 64.8218 19.05C64.5818 19.51 64.4618 19.88 64.4618 20.16C64.4618 20.36 64.5218 20.46 64.6418 20.46C64.8818 20.46 65.2118 20.33 65.6318 20.07C66.0718 19.81 66.5418 19.48 67.0418 19.08C67.5618 18.66 68.0718 18.23 68.5718 17.79C69.0918 17.35 69.5518 16.94 69.9518 16.56C70.3518 16.18 70.6418 15.89 70.8218 15.69C70.9418 15.57 71.0418 15.51 71.1218 15.51C71.2418 15.51 71.3018 15.57 71.3018 15.69C71.3018 15.75 71.2618 15.84 71.1818 15.96C70.9218 16.3 70.5418 16.73 70.0418 17.25C69.5418 17.75 68.9918 18.27 68.3918 18.81C67.7918 19.33 67.2118 19.81 66.6518 20.25C66.1118 20.67 65.6618 20.99 65.3018 21.21C65.1618 21.29 64.9818 21.33 64.7618 21.33C64.4618 21.33 64.1118 21.23 63.7118 21.03C63.3118 20.83 63.1118 20.56 63.1118 20.22C63.1118 19.92 63.2218 19.54 63.4418 19.08C63.6618 18.62 63.9318 18.13 64.2518 17.61C64.5718 17.09 64.9018 16.59 65.2418 16.11C65.5818 15.61 65.8718 15.19 66.1118 14.85C66.3718 14.49 66.5318 14.25 66.5918 14.13C66.8718 13.75 67.0418 13.51 67.1018 13.41C67.1618 13.31 67.2018 13.23 67.2218 13.17C67.0618 13.29 66.8118 13.48 66.4718 13.74C66.1318 13.98 65.7918 14.23 65.4518 14.49C65.1118 14.75 64.8618 14.95 64.7018 15.09C63.5818 16.07 62.6418 17.01 61.8818 17.91C61.1418 18.79 60.4518 19.73 59.8118 20.73C59.7918 20.75 59.7418 20.77 59.6618 20.79C59.5818 20.79 59.5218 20.79 59.4818 20.79C59.3618 20.79 59.1818 20.76 58.9418 20.7C58.7218 20.64 58.6318 20.51 58.6718 20.31C58.7918 20.01 58.9518 19.69 59.1518 19.35C59.3518 19.01 59.6318 18.55 59.9918 17.97C60.3518 17.37 60.8218 16.53 61.4018 15.45C61.5018 15.27 61.6718 14.98 61.9118 14.58C62.1518 14.18 62.4118 13.75 62.6918 13.29C62.9918 12.83 63.2718 12.39 63.5318 11.97C63.7918 11.55 63.9918 11.23 64.1318 11.01C63.7518 11.05 63.2218 11.09 62.5418 11.13C61.8618 11.15 61.1718 11.16 60.4718 11.16C60.1318 11.16 59.8018 11.16 59.4818 11.16C59.1618 11.14 58.8618 11.12 58.5818 11.1C58.2218 11.46 57.7818 12 57.2618 12.72C56.7618 13.44 56.2618 14.25 55.7618 15.15C55.2618 16.03 54.8418 16.91 54.5018 17.79C54.1818 18.67 54.0218 19.46 54.0218 20.16C54.0218 20.26 54.0318 20.34 54.0518 20.4C54.0718 20.46 54.1318 20.49 54.2318 20.49C54.3518 20.49 54.4618 20.46 54.5618 20.4C54.6818 20.32 54.7818 20.24 54.8618 20.16C55.1418 19.94 55.4018 19.69 55.6418 19.41C55.9018 19.11 56.1518 18.83 56.3918 18.57C56.8318 18.09 57.2818 17.62 57.7418 17.16C58.2018 16.7 58.6518 16.24 59.0918 15.78C59.1318 15.74 59.1718 15.71 59.2118 15.69C59.2518 15.65 59.2918 15.63 59.3318 15.63C59.4718 15.63 59.5418 15.71 59.5418 15.87C59.5418 15.93 59.5018 16.02 59.4218 16.14C59.1818 16.46 58.9218 16.78 58.6418 17.1C58.3618 17.4 58.0918 17.71 57.8318 18.03C57.3118 18.65 56.7918 19.26 56.2718 19.86C55.7718 20.46 55.2718 21.08 54.7718 21.72C54.7118 21.74 54.6518 21.75 54.5918 21.75C54.5318 21.77 54.4718 21.78 54.4118 21.78ZM65.9318 10.17C66.8518 9.93 67.8218 9.58 68.8418 9.12C69.8818 8.64 70.8918 8.1 71.8718 7.5C72.8518 6.88 73.7318 6.24 74.5118 5.58C75.3118 4.9 75.9418 4.24 76.4018 3.6C76.8818 2.96 77.1218 2.39 77.1218 1.89C77.1218 1.75 77.1118 1.64 77.0918 1.56C76.9518 1.2 76.6018 1.02 76.0418 1.02C75.8218 1.02 75.5718 1.05 75.2918 1.11C75.0318 1.17 74.7518 1.28 74.4518 1.44C73.3718 1.98 72.3618 2.65 71.4218 3.45C70.5018 4.25 69.6018 5.2 68.7218 6.3C67.8418 7.4 66.9118 8.69 65.9318 10.17ZM74.693 21.27C74.513 21.27 74.303 21.19 74.063 21.03C73.843 20.87 73.653 20.69 73.493 20.49C73.333 20.27 73.253 20.07 73.253 19.89C73.253 19.59 73.363 19.19 73.583 18.69C73.803 18.17 74.053 17.66 74.333 17.16C74.633 16.66 74.863 16.29 75.023 16.05C74.743 16.29 74.383 16.68 73.943 17.22C73.523 17.74 73.063 18.3 72.563 18.9C72.083 19.48 71.613 19.98 71.153 20.4C70.713 20.82 70.333 21.03 70.013 21.03C69.573 21.03 69.213 20.88 68.933 20.58C68.673 20.26 68.543 19.88 68.543 19.44C68.543 18.84 68.713 18.2 69.053 17.52C69.393 16.82 69.833 16.15 70.373 15.51C70.933 14.85 71.533 14.25 72.173 13.71C72.833 13.17 73.473 12.74 74.093 12.42C74.733 12.1 75.303 11.94 75.803 11.94C76.343 11.94 76.783 12.07 77.123 12.33C77.463 12.57 77.633 12.94 77.633 13.44C77.633 13.52 77.613 13.67 77.573 13.89C77.553 14.11 77.483 14.22 77.363 14.22C77.303 14.22 77.203 14.13 77.063 13.95C76.943 13.77 76.773 13.59 76.553 13.41C76.333 13.23 76.053 13.14 75.713 13.14C75.153 13.14 74.563 13.35 73.943 13.77C73.343 14.17 72.763 14.69 72.203 15.33C71.643 15.95 71.153 16.59 70.733 17.25C70.313 17.91 69.993 18.48 69.773 18.96C69.713 19.1 69.653 19.25 69.593 19.41C69.553 19.57 69.533 19.73 69.533 19.89C69.533 20.07 69.583 20.16 69.683 20.16C69.783 20.16 69.993 20.05 70.313 19.83C70.653 19.61 70.893 19.45 71.033 19.35C71.733 18.85 72.393 18.28 73.013 17.64C73.653 17 74.223 16.34 74.723 15.66C74.883 15.44 75.033 15.22 75.173 15C75.313 14.78 75.453 14.57 75.593 14.37C75.693 14.23 75.793 14.16 75.893 14.16C76.113 14.16 76.323 14.31 76.523 14.61C76.743 14.91 76.853 15.17 76.853 15.39C76.853 15.49 76.833 15.55 76.793 15.57C76.773 15.59 76.713 15.65 76.613 15.75C76.313 16.05 76.013 16.47 75.713 17.01C75.433 17.55 75.183 18.1 74.963 18.66C74.763 19.2 74.613 19.66 74.513 20.04C74.493 20.1 74.473 20.18 74.453 20.28C74.453 20.36 74.503 20.39 74.603 20.37C74.803 20.31 75.123 20.09 75.563 19.71C76.023 19.31 76.513 18.86 77.033 18.36C77.573 17.84 78.053 17.36 78.473 16.92C78.913 16.48 79.203 16.17 79.343 15.99C79.383 15.95 79.423 15.91 79.463 15.87C79.523 15.81 79.583 15.78 79.643 15.78C79.783 15.78 79.853 15.85 79.853 15.99C79.853 16.07 79.693 16.31 79.373 16.71C79.053 17.09 78.653 17.54 78.173 18.06C77.693 18.56 77.203 19.06 76.703 19.56C76.203 20.04 75.763 20.45 75.383 20.79C75.023 21.11 74.793 21.27 74.693 21.27ZM84.7266 21.33C84.4266 21.33 84.0866 21.24 83.7066 21.06C83.3466 20.9 83.1666 20.64 83.1666 20.28C83.1666 19.86 83.3266 19.36 83.6466 18.78C83.9666 18.2 84.3466 17.6 84.7866 16.98C85.2266 16.34 85.6466 15.73 86.0466 15.15C86.4666 14.57 86.7666 14.08 86.9466 13.68C86.8266 13.74 86.6266 13.86 86.3466 14.04C86.0866 14.2 85.8266 14.37 85.5666 14.55C85.3066 14.71 85.1166 14.84 84.9966 14.94C84.1366 15.58 83.3866 16.24 82.7466 16.92C82.1266 17.6 81.4966 18.38 80.8566 19.26C80.6966 19.5 80.5266 19.75 80.3466 20.01C80.1866 20.27 80.0166 20.52 79.8366 20.76C79.7566 20.86 79.6166 20.96 79.4166 21.06C79.2366 21.16 79.0666 21.21 78.9066 21.21C78.6466 21.21 78.5166 21.07 78.5166 20.79C78.5166 20.55 78.6366 20.18 78.8766 19.68C79.1366 19.18 79.4566 18.61 79.8366 17.97C80.2166 17.33 80.6166 16.7 81.0366 16.08C81.4566 15.44 81.8366 14.87 82.1766 14.37C82.5166 13.85 82.7566 13.48 82.8966 13.26C82.8566 13.32 82.7466 13.43 82.5666 13.59C82.3866 13.73 82.2066 13.88 82.0266 14.04C81.8666 14.18 81.7466 14.28 81.6666 14.34C81.2866 14.7 80.9166 15.07 80.5566 15.45C80.1966 15.83 79.8366 16.21 79.4766 16.59C79.4366 16.63 79.3566 16.69 79.2366 16.77C79.1366 16.85 79.0466 16.89 78.9666 16.89C78.8666 16.89 78.8166 16.84 78.8166 16.74C78.8166 16.64 78.9566 16.43 79.2366 16.11C79.5166 15.79 79.8666 15.41 80.2866 14.97C80.7066 14.53 81.1366 14.08 81.5766 13.62C82.0366 13.16 82.4366 12.75 82.7766 12.39C83.1166 12.03 83.3466 11.78 83.4666 11.64C83.6666 11.38 83.8766 11.17 84.0966 11.01C84.3366 10.85 84.6166 10.77 84.9366 10.77C85.1166 10.77 85.3366 10.86 85.5966 11.04C85.8566 11.2 85.9866 11.39 85.9866 11.61C85.9866 11.69 85.9666 11.74 85.9266 11.76C85.3266 12.26 84.7366 12.85 84.1566 13.53C83.5966 14.21 83.0666 14.91 82.5666 15.63C82.0666 16.35 81.6066 17.02 81.1866 17.64C81.6666 17.1 82.2066 16.57 82.8066 16.05C83.4066 15.51 83.9866 15.01 84.5466 14.55L86.6766 12.81C86.8166 12.69 86.9566 12.56 87.0966 12.42C87.2566 12.28 87.4066 12.16 87.5466 12.06C87.7066 11.96 87.8766 11.92 88.0566 11.94C88.2566 11.94 88.4566 11.94 88.6566 11.94C88.8766 11.94 89.0866 12 89.2866 12.12C89.5066 12.24 89.6166 12.43 89.6166 12.69C89.6166 12.95 89.5466 13.15 89.4066 13.29C89.2866 13.41 89.1466 13.55 88.9866 13.71C88.6466 14.03 88.2266 14.45 87.7266 14.97C87.2466 15.49 86.7666 16.05 86.2866 16.65C85.8066 17.25 85.4066 17.86 85.0866 18.48C84.7666 19.08 84.6066 19.64 84.6066 20.16C84.6066 20.22 84.6066 20.28 84.6066 20.34C84.6066 20.4 84.6166 20.46 84.6366 20.52C85.0566 20.36 85.5166 20.1 86.0166 19.74C86.5366 19.36 87.0566 18.94 87.5766 18.48C88.0966 18.02 88.5766 17.56 89.0166 17.1C89.4766 16.64 89.8566 16.23 90.1566 15.87C90.1966 15.83 90.2366 15.78 90.2766 15.72C90.3366 15.66 90.4066 15.63 90.4866 15.63C90.5866 15.63 90.6366 15.7 90.6366 15.84C90.6366 15.92 90.6066 16.01 90.5466 16.11C90.1666 16.61 89.6566 17.2 89.0166 17.88C88.3766 18.56 87.7166 19.21 87.0366 19.83C86.3566 20.43 85.7466 20.89 85.2066 21.21C85.0666 21.29 84.9066 21.33 84.7266 21.33ZM102.601 22.02C102.461 22.02 102.311 22.02 102.151 22.02C102.011 22.02 101.891 22.01 101.791 21.99C101.611 21.97 101.311 21.9 100.891 21.78C100.471 21.66 100.031 21.5 99.5712 21.3C99.1312 21.12 98.7512 20.91 98.4312 20.67C98.1312 20.43 97.9812 20.17 97.9812 19.89C97.9812 19.77 98.0512 19.71 98.1912 19.71C98.5312 19.71 98.8712 19.8 99.2112 19.98C99.5712 20.16 99.9412 20.27 100.321 20.31C100.481 20.33 100.651 20.35 100.831 20.37C101.031 20.37 101.251 20.37 101.491 20.37C101.991 20.37 102.511 20.33 103.051 20.25C103.591 20.15 104.051 19.98 104.431 19.74C104.811 19.5 105.011 19.16 105.031 18.72C105.031 18.44 104.851 18.09 104.491 17.67C104.131 17.23 103.671 16.73 103.111 16.17C102.571 15.59 102.031 14.96 101.491 14.28C100.951 13.58 100.491 12.83 100.111 12.03C99.7512 11.23 99.5712 10.4 99.5712 9.54C99.5712 8.46 99.8312 7.52 100.351 6.72C100.871 5.92 101.551 5.27 102.391 4.77C103.231 4.25 104.151 3.87 105.151 3.63C106.151 3.37 107.131 3.24 108.091 3.24C108.571 3.24 109.021 3.27 109.441 3.33C109.981 3.39 110.561 3.53 111.181 3.75C111.821 3.95 112.371 4.27 112.831 4.71C113.291 5.13 113.521 5.69 113.521 6.39C113.521 7.13 113.281 7.84 112.801 8.52C112.341 9.2 111.771 9.8 111.091 10.32C110.431 10.82 109.781 11.2 109.141 11.46C109.021 11.52 108.901 11.55 108.781 11.55C108.681 11.51 108.631 11.46 108.631 11.4C108.731 11.18 108.971 10.88 109.351 10.5C109.751 10.1 110.181 9.66 110.641 9.18C111.121 8.7 111.531 8.19 111.871 7.65C112.231 7.09 112.411 6.54 112.411 6C112.411 5.64 112.281 5.37 112.021 5.19C111.761 4.99 111.451 4.84 111.091 4.74C110.751 4.64 110.451 4.57 110.191 4.53C110.071 4.51 109.951 4.5 109.831 4.5C109.711 4.5 109.581 4.5 109.441 4.5C108.541 4.5 107.571 4.66 106.531 4.98C105.511 5.28 104.541 5.71 103.621 6.27C102.701 6.83 101.951 7.5 101.371 8.28C100.791 9.04 100.501 9.89 100.501 10.83C100.501 11.39 100.701 11.99 101.101 12.63C101.501 13.25 102.001 13.89 102.601 14.55C103.201 15.21 103.801 15.87 104.401 16.53C105.001 17.17 105.501 17.8 105.901 18.42C106.301 19.02 106.501 19.58 106.501 20.1C106.501 20.6 106.281 20.99 105.841 21.27C105.421 21.55 104.901 21.74 104.281 21.84C103.681 21.96 103.121 22.02 102.601 22.02ZM110.708 21C110.328 21 109.968 20.8 109.628 20.4C109.308 20 109.148 19.62 109.148 19.26C109.148 19.16 109.158 19.08 109.178 19.02C109.538 18.06 109.998 17.18 110.558 16.38C111.138 15.56 111.708 14.73 112.268 13.89C112.288 13.87 112.298 13.84 112.298 13.8C112.298 13.74 112.288 13.69 112.268 13.65C112.248 13.59 112.238 13.53 112.238 13.47C112.238 13.27 112.358 13.06 112.598 12.84C112.858 12.62 113.138 12.43 113.438 12.27C113.758 12.11 114.008 12.03 114.188 12.03C114.408 12.03 114.618 12.11 114.818 12.27C115.038 12.41 115.148 12.6 115.148 12.84C114.948 13 114.658 13.28 114.278 13.68C113.898 14.08 113.488 14.54 113.048 15.06C112.628 15.56 112.218 16.08 111.818 16.62C111.438 17.14 111.118 17.63 110.858 18.09C110.618 18.53 110.498 18.87 110.498 19.11C110.498 19.31 110.588 19.41 110.768 19.41C110.968 19.41 111.258 19.27 111.638 18.99C112.038 18.69 112.468 18.32 112.928 17.88C113.388 17.44 113.838 16.98 114.278 16.5C114.718 16.02 115.108 15.59 115.448 15.21C115.808 14.81 116.058 14.52 116.198 14.34C116.418 14.02 116.638 13.73 116.858 13.47C117.098 13.19 117.378 12.81 117.698 12.33C117.858 12.13 118.028 11.96 118.208 11.82C118.388 11.66 118.578 11.58 118.778 11.58C118.878 11.58 119.028 11.63 119.228 11.73C119.428 11.83 119.588 11.94 119.708 12.06C119.828 12.16 119.888 12.28 119.888 12.42C119.888 12.6 119.818 12.74 119.678 12.84C119.438 13.14 119.138 13.56 118.778 14.1C118.438 14.62 118.098 15.19 117.758 15.81C117.438 16.41 117.168 16.98 116.948 17.52C116.728 18.06 116.618 18.48 116.618 18.78C116.618 19.06 116.698 19.21 116.858 19.23C117.098 19.21 117.448 19 117.908 18.6C118.368 18.2 118.868 17.7 119.408 17.1C119.968 16.48 120.508 15.85 121.028 15.21C121.548 14.55 121.998 13.97 122.378 13.47C122.438 13.11 122.488 12.78 122.528 12.48C122.588 12.16 122.708 11.79 122.888 11.37C122.988 11.15 123.118 10.97 123.278 10.83C123.438 10.67 123.638 10.59 123.878 10.59C124.098 10.59 124.298 10.66 124.478 10.8C124.678 10.94 124.778 11.12 124.778 11.34C124.778 11.6 124.678 11.84 124.478 12.06C124.278 12.28 124.078 12.56 123.878 12.9C123.678 13.24 123.578 13.72 123.578 14.34V14.46C123.578 14.54 123.568 14.64 123.548 14.76C123.528 14.88 123.468 14.94 123.368 14.94C123.228 14.94 123.078 14.86 122.918 14.7C122.758 14.54 122.668 14.39 122.648 14.25C122.148 14.81 121.608 15.46 121.028 16.2C120.468 16.94 119.908 17.66 119.348 18.36C118.808 19.04 118.298 19.63 117.818 20.13C117.358 20.61 116.968 20.89 116.648 20.97C116.568 20.99 116.468 21 116.348 21C116.128 21 115.918 20.95 115.718 20.85C115.518 20.75 115.328 20.57 115.148 20.31C115.128 20.27 115.118 20.22 115.118 20.16C115.118 20.1 115.108 20.05 115.088 20.01C115.068 19.93 115.038 19.85 114.998 19.77C114.978 19.67 114.968 19.57 114.968 19.47C114.968 19.01 115.098 18.47 115.358 17.85C115.638 17.23 115.948 16.6 116.288 15.96C116.628 15.32 116.908 14.76 117.128 14.28C115.988 15.6 114.958 16.76 114.038 17.76C113.138 18.74 112.268 19.7 111.428 20.64C111.328 20.74 111.218 20.83 111.098 20.91C110.998 20.97 110.868 21 110.708 21ZM124.405 20.73C123.205 20.73 122.605 20.14 122.605 18.96C122.605 18.5 122.725 17.97 122.965 17.37C123.225 16.75 123.565 16.13 123.985 15.51C124.405 14.89 124.875 14.32 125.395 13.8C125.915 13.26 126.445 12.83 126.985 12.51C127.545 12.17 128.065 12 128.545 12C128.705 12 128.815 12.04 128.875 12.12C128.955 12.18 129.015 12.29 129.055 12.45C129.095 12.53 129.125 12.62 129.145 12.72C129.165 12.82 129.195 12.92 129.235 13.02C129.315 13.16 129.385 13.3 129.445 13.44C129.505 13.58 129.535 13.73 129.535 13.89C129.535 14.09 129.485 14.27 129.385 14.43C129.285 14.57 129.165 14.7 129.025 14.82C128.825 15 128.525 15.23 128.125 15.51C127.725 15.77 127.285 16.04 126.805 16.32C126.345 16.58 125.895 16.81 125.455 17.01C125.035 17.21 124.695 17.33 124.435 17.37C124.255 17.65 124.065 18 123.865 18.42C123.685 18.82 123.595 19.19 123.595 19.53C123.595 19.71 123.635 19.87 123.715 20.01C123.815 20.15 123.965 20.22 124.165 20.22C124.485 20.22 124.905 20.07 125.425 19.77C125.965 19.45 126.525 19.07 127.105 18.63C127.685 18.17 128.215 17.73 128.695 17.31C129.195 16.87 129.565 16.53 129.805 16.29L130.765 15.27C130.885 15.15 131.015 15.09 131.155 15.09C131.275 15.09 131.335 15.14 131.335 15.24C131.335 15.36 131.165 15.61 130.825 15.99C130.485 16.35 130.075 16.76 129.595 17.22C129.135 17.66 128.705 18.07 128.305 18.45C127.905 18.81 127.645 19.04 127.525 19.14C127.105 19.5 126.625 19.86 126.085 20.22C125.545 20.56 124.985 20.73 124.405 20.73ZM124.945 16.59C125.145 16.47 125.445 16.28 125.845 16.02C126.265 15.76 126.695 15.47 127.135 15.15C127.575 14.83 127.945 14.51 128.245 14.19C128.565 13.87 128.725 13.59 128.725 13.35C128.725 13.29 128.715 13.24 128.695 13.2C128.675 13.18 128.635 13.17 128.575 13.17C128.315 13.17 128.005 13.31 127.645 13.59C127.285 13.87 126.925 14.21 126.565 14.61C126.205 14.99 125.875 15.37 125.575 15.75C125.295 16.11 125.085 16.39 124.945 16.59ZM130.938 20.73C129.738 20.73 129.138 20.14 129.138 18.96C129.138 18.5 129.258 17.97 129.498 17.37C129.758 16.75 130.098 16.13 130.518 15.51C130.938 14.89 131.408 14.32 131.928 13.8C132.448 13.26 132.978 12.83 133.518 12.51C134.078 12.17 134.598 12 135.078 12C135.238 12 135.348 12.04 135.408 12.12C135.488 12.18 135.548 12.29 135.588 12.45C135.628 12.53 135.658 12.62 135.678 12.72C135.698 12.82 135.728 12.92 135.768 13.02C135.848 13.16 135.918 13.3 135.978 13.44C136.038 13.58 136.068 13.73 136.068 13.89C136.068 14.09 136.018 14.27 135.918 14.43C135.818 14.57 135.698 14.7 135.558 14.82C135.358 15 135.058 15.23 134.658 15.51C134.258 15.77 133.818 16.04 133.338 16.32C132.878 16.58 132.428 16.81 131.988 17.01C131.568 17.21 131.228 17.33 130.968 17.37C130.788 17.65 130.598 18 130.398 18.42C130.218 18.82 130.128 19.19 130.128 19.53C130.128 19.71 130.168 19.87 130.248 20.01C130.348 20.15 130.498 20.22 130.698 20.22C131.018 20.22 131.438 20.07 131.958 19.77C132.498 19.45 133.058 19.07 133.638 18.63C134.218 18.17 134.748 17.73 135.228 17.31C135.728 16.87 136.098 16.53 136.338 16.29L137.298 15.27C137.418 15.15 137.548 15.09 137.688 15.09C137.808 15.09 137.868 15.14 137.868 15.24C137.868 15.36 137.698 15.61 137.358 15.99C137.018 16.35 136.608 16.76 136.128 17.22C135.668 17.66 135.238 18.07 134.838 18.45C134.438 18.81 134.178 19.04 134.058 19.14C133.638 19.5 133.158 19.86 132.618 20.22C132.078 20.56 131.518 20.73 130.938 20.73ZM131.478 16.59C131.678 16.47 131.978 16.28 132.378 16.02C132.798 15.76 133.228 15.47 133.668 15.15C134.108 14.83 134.478 14.51 134.778 14.19C135.098 13.87 135.258 13.59 135.258 13.35C135.258 13.29 135.248 13.24 135.228 13.2C135.208 13.18 135.168 13.17 135.108 13.17C134.848 13.17 134.538 13.31 134.178 13.59C133.818 13.87 133.458 14.21 133.098 14.61C132.738 14.99 132.408 15.37 132.108 15.75C131.828 16.11 131.618 16.39 131.478 16.59ZM146.111 22.26C145.871 22.26 145.621 22.2 145.361 22.08C145.121 21.98 144.881 21.84 144.641 21.66C144.381 21.44 144.131 21.13 143.891 20.73C143.651 20.33 143.451 19.91 143.291 19.47L143.261 19.41C142.261 20.21 141.311 20.83 140.411 21.27C139.531 21.71 138.741 21.99 138.041 22.11C137.961 22.13 137.891 22.14 137.831 22.14C137.771 22.14 137.711 22.14 137.651 22.14C137.111 22.14 136.751 21.95 136.571 21.57C136.391 21.19 136.311 20.75 136.331 20.25C136.351 19.57 136.521 18.82 136.841 18C137.161 17.18 137.551 16.36 138.011 15.54C138.471 14.72 138.921 13.97 139.361 13.29C139.801 12.61 140.141 12.08 140.381 11.7C140.141 11.8 139.851 11.92 139.511 12.06C139.171 12.18 138.851 12.29 138.551 12.39C138.251 12.49 138.041 12.54 137.921 12.54C137.741 12.54 137.651 12.42 137.651 12.18C137.651 11.94 137.711 11.72 137.831 11.52C137.951 11.32 138.131 11.18 138.371 11.1C138.771 10.96 139.211 10.83 139.691 10.71C140.171 10.57 140.671 10.44 141.191 10.32C141.951 9.24 142.771 8.24 143.651 7.32C144.531 6.38 145.451 5.6 146.411 4.98C146.591 4.86 146.791 4.92 147.011 5.16C147.231 5.38 147.351 5.61 147.371 5.85C147.371 6.07 147.291 6.22 147.131 6.3C146.291 6.8 145.551 7.36 144.911 7.98C144.291 8.6 143.631 9.28 142.931 10.02C143.091 10 143.361 9.97 143.741 9.93C144.121 9.89 144.531 9.85 144.971 9.81C145.411 9.77 145.811 9.74 146.171 9.72C146.551 9.68 146.811 9.66 146.951 9.66C147.031 9.66 147.161 9.67 147.341 9.69C147.541 9.69 147.721 9.71 147.881 9.75C148.061 9.79 148.151 9.87 148.151 9.99C148.151 10.13 148.041 10.2 147.821 10.2C147.601 10.2 147.441 10.2 147.341 10.2C147.101 10.2 146.751 10.23 146.291 10.29C145.831 10.35 145.321 10.43 144.761 10.53C144.221 10.61 143.711 10.7 143.231 10.8C142.771 10.9 142.421 10.99 142.181 11.07C141.721 11.63 141.291 12.2 140.891 12.78C140.511 13.34 140.141 13.94 139.781 14.58C139.641 14.82 139.451 15.2 139.211 15.72C138.991 16.22 138.761 16.78 138.521 17.4C138.281 18.02 138.081 18.62 137.921 19.2C137.761 19.76 137.681 20.23 137.681 20.61C137.681 21.13 137.861 21.35 138.221 21.27C138.621 21.19 139.121 21.03 139.721 20.79C140.341 20.53 140.951 20.23 141.551 19.89C142.171 19.53 142.681 19.16 143.081 18.78C143.061 18.68 143.051 18.59 143.051 18.51C143.051 18.43 143.051 18.34 143.051 18.24C142.911 18.14 142.721 18.02 142.481 17.88C142.261 17.72 142.151 17.46 142.151 17.1C142.151 16.68 142.281 16.27 142.541 15.87C142.801 15.47 143.021 15.27 143.201 15.27C143.341 15.27 143.411 15.39 143.411 15.63C143.411 15.71 143.411 15.92 143.411 16.26C143.431 16.6 143.451 16.95 143.471 17.31C143.491 17.65 143.511 17.88 143.531 18C143.611 18.08 143.681 18.13 143.741 18.15L145.271 16.5C145.851 15.84 146.431 15.2 147.011 14.58C147.591 13.96 148.121 13.4 148.601 12.9C148.941 12.38 149.311 11.94 149.711 11.58C150.131 11.22 150.611 11.04 151.151 11.04C151.531 11.04 151.801 11.11 151.961 11.25C152.121 11.39 152.201 11.55 152.201 11.73C152.201 11.91 152.121 12.08 151.961 12.24C151.821 12.38 151.611 12.45 151.331 12.45C150.891 12.43 150.511 12.45 150.191 12.51C149.871 12.55 149.641 12.69 149.501 12.93C149.361 13.19 149.201 13.62 149.021 14.22C148.841 14.82 148.661 15.5 148.481 16.26C148.321 17.02 148.181 17.76 148.061 18.48C148.481 18.4 148.881 18.3 149.261 18.18C149.661 18.04 150.091 17.81 150.551 17.49C151.011 17.17 151.541 16.7 152.141 16.08C152.241 15.96 152.341 15.9 152.441 15.9C152.501 15.9 152.531 15.94 152.531 16.02C152.531 16.06 152.511 16.13 152.471 16.23C152.431 16.33 152.351 16.46 152.231 16.62C151.991 16.94 151.691 17.26 151.331 17.58C150.991 17.88 150.691 18.11 150.431 18.27C149.891 18.59 149.381 18.79 148.901 18.87C148.421 18.93 148.111 18.97 147.971 18.99C147.891 19.41 147.821 19.76 147.761 20.04C147.701 20.3 147.661 20.49 147.641 20.61C147.541 21.19 147.341 21.61 147.041 21.87C146.761 22.13 146.451 22.26 146.111 22.26ZM146.801 18.48C146.901 18.02 147.031 17.41 147.191 16.65C147.371 15.89 147.611 15.13 147.911 14.37C147.551 14.77 147.161 15.2 146.741 15.66C146.321 16.1 145.891 16.56 145.451 17.04C145.291 17.26 145.121 17.48 144.941 17.7C144.781 17.9 144.601 18.11 144.401 18.33C145.221 18.49 146.021 18.54 146.801 18.48ZM145.661 20.82C145.821 20.82 145.981 20.71 146.141 20.49C146.321 20.25 146.491 19.81 146.651 19.17C146.651 19.11 146.661 19.07 146.681 19.05C146.221 19.03 145.771 19 145.331 18.96C144.891 18.92 144.471 18.83 144.071 18.69C143.991 18.77 143.931 18.83 143.891 18.87C143.851 18.91 143.811 18.95 143.771 18.99C143.931 19.31 144.121 19.63 144.341 19.95C144.561 20.25 144.811 20.47 145.091 20.61C145.191 20.67 145.291 20.72 145.391 20.76C145.491 20.8 145.581 20.82 145.661 20.82ZM161.679 26.55C161.599 26.55 161.479 26.51 161.319 26.43C161.159 26.35 161.039 26.24 160.959 26.1C160.339 25.1 160.029 24.1 160.029 23.1C160.029 22.5 160.099 21.96 160.239 21.48C159.699 21.36 159.169 21.18 158.649 20.94C158.149 20.68 157.729 20.35 157.389 19.95C157.049 19.55 156.879 19.05 156.879 18.45C156.879 18.07 156.939 17.72 157.059 17.4C157.179 17.06 157.329 16.76 157.509 16.5C158.389 15.1 159.499 13.98 160.839 13.14C162.199 12.3 163.609 11.68 165.069 11.28C164.869 11 164.719 10.71 164.619 10.41C164.519 10.09 164.469 9.78 164.469 9.48C164.469 8.76 164.689 8.06 165.129 7.38C165.569 6.68 166.149 6.05 166.869 5.49C167.609 4.93 168.419 4.49 169.299 4.17C170.199 3.83 171.099 3.66 171.999 3.66C172.739 3.66 173.319 3.73 173.739 3.87C174.179 4.01 174.589 4.13 174.969 4.23L176.439 2.88C176.459 2.86 176.589 2.8 176.829 2.7C177.069 2.6 177.229 2.55 177.309 2.55C177.349 2.55 177.369 2.56 177.369 2.58C177.369 2.62 177.309 2.7 177.189 2.82C176.869 3.14 176.579 3.49 176.319 3.87C176.059 4.23 175.819 4.53 175.599 4.77C175.619 4.83 175.629 4.89 175.629 4.95C175.629 5.01 175.629 5.07 175.629 5.13C175.629 5.63 175.469 6.11 175.149 6.57C174.829 7.03 174.399 7.41 173.859 7.71C173.339 7.99 172.759 8.13 172.119 8.13C171.739 8.13 171.549 8.04 171.549 7.86C171.549 7.7 171.659 7.5 171.879 7.26C172.119 7 172.329 6.78 172.509 6.6L174.189 4.98C173.949 4.76 173.619 4.63 173.199 4.59C172.799 4.53 172.489 4.5 172.269 4.5C171.609 4.5 170.899 4.64 170.139 4.92C169.399 5.18 168.689 5.57 168.009 6.09C167.349 6.59 166.819 7.21 166.419 7.95C166.279 8.23 166.149 8.55 166.029 8.91C165.909 9.25 165.849 9.6 165.849 9.96C165.849 10.36 165.919 10.69 166.059 10.95C166.519 10.85 167.009 10.78 167.529 10.74C168.069 10.68 168.569 10.65 169.029 10.65C169.169 10.65 169.349 10.67 169.569 10.71C169.789 10.73 169.989 10.79 170.169 10.89C170.369 10.99 170.469 11.15 170.469 11.37C170.469 11.57 170.419 11.75 170.319 11.91C170.119 12.25 169.819 12.47 169.419 12.57C169.019 12.65 168.679 12.69 168.399 12.69C167.919 12.69 167.419 12.63 166.899 12.51C166.399 12.39 165.939 12.17 165.519 11.85C164.299 12.23 163.109 12.79 161.949 13.53C160.809 14.27 159.889 15.26 159.189 16.5C159.049 16.76 158.929 17.04 158.829 17.34C158.729 17.64 158.679 17.96 158.679 18.3C158.679 18.92 158.879 19.4 159.279 19.74C159.679 20.08 160.129 20.33 160.629 20.49C161.149 19.39 161.899 18.41 162.879 17.55C163.879 16.67 164.949 15.93 166.089 15.33C167.249 14.73 168.319 14.29 169.299 14.01C169.819 13.85 170.449 13.72 171.189 13.62C171.949 13.52 172.719 13.41 173.499 13.29C174.299 13.17 175.049 13.01 175.749 12.81C176.449 12.61 177.009 12.34 177.429 12C177.869 11.66 178.089 11.23 178.089 10.71C178.089 10.45 178.139 10.27 178.239 10.17C178.359 10.07 178.479 10.02 178.599 10.02C178.799 10.02 178.949 10.09 179.049 10.23C179.249 10.55 179.349 10.86 179.349 11.16C179.349 11.58 179.159 11.95 178.779 12.27C178.399 12.57 177.899 12.83 177.279 13.05C176.659 13.27 175.969 13.47 175.209 13.65C174.469 13.83 173.729 14 172.989 14.16C173.249 14.38 173.379 14.69 173.379 15.09C173.379 15.41 173.309 15.72 173.169 16.02C173.029 16.3 172.869 16.57 172.689 16.83C172.449 17.15 172.149 17.48 171.789 17.82C171.449 18.16 171.119 18.45 170.799 18.69C169.559 19.61 168.209 20.34 166.749 20.88C165.289 21.4 163.759 21.67 162.159 21.69C162.019 21.69 161.849 21.68 161.649 21.66C161.469 21.66 161.279 21.65 161.079 21.63C160.919 22.15 160.839 22.67 160.839 23.19C160.839 23.43 160.869 23.74 160.929 24.12C160.989 24.52 161.079 24.9 161.199 25.26C161.319 25.64 161.469 25.95 161.649 26.19C161.749 26.29 161.799 26.38 161.799 26.46C161.799 26.52 161.759 26.55 161.679 26.55ZM168.519 12.12C168.679 12.12 168.849 12.09 169.029 12.03C169.229 11.97 169.379 11.85 169.479 11.67V11.55C169.479 11.45 169.409 11.39 169.269 11.37C169.149 11.35 169.039 11.34 168.939 11.34C168.179 11.34 167.419 11.43 166.659 11.61C167.239 11.95 167.859 12.12 168.519 12.12ZM162.729 20.76C164.369 20.76 165.969 20.43 167.529 19.77C169.109 19.11 170.479 18.11 171.639 16.77C171.799 16.55 171.959 16.3 172.119 16.02C172.299 15.74 172.389 15.47 172.389 15.21C172.389 15.01 172.349 14.84 172.269 14.7C172.189 14.56 172.089 14.45 171.969 14.37C171.209 14.51 170.539 14.68 169.959 14.88C168.979 15.2 167.929 15.64 166.809 16.2C165.709 16.74 164.679 17.39 163.719 18.15C162.759 18.89 162.019 19.73 161.499 20.67C161.959 20.73 162.369 20.76 162.729 20.76ZM188.891 21.81C188.451 21.81 188.121 21.71 187.901 21.51C187.701 21.31 187.601 20.98 187.601 20.52C187.601 19.9 187.781 19.11 188.141 18.15C188.521 17.17 189.011 16.11 189.611 14.97C190.211 13.83 190.851 12.7 191.531 11.58C192.211 10.46 192.861 9.44 193.481 8.52C194.101 7.58 194.611 6.84 195.011 6.3C194.951 6.28 194.861 6.25 194.741 6.21C194.621 6.17 194.561 6.1 194.561 6C194.561 5.9 194.701 5.7 194.981 5.4C195.281 5.08 195.631 4.74 196.031 4.38C196.431 4 196.801 3.68 197.141 3.42C197.501 3.14 197.741 3 197.861 3C198.181 3 198.471 3.13 198.731 3.39C199.011 3.65 199.151 3.95 199.151 4.29C199.151 4.37 199.131 4.45 199.091 4.53C199.031 4.83 198.901 5.37 198.701 6.15C198.521 6.93 198.321 7.85 198.101 8.91C197.901 9.95 197.721 11.04 197.561 12.18C197.421 13.32 197.351 14.39 197.351 15.39C197.351 16.55 197.491 17.53 197.771 18.33C198.071 19.13 198.601 19.53 199.361 19.53C200.041 19.53 200.721 19.21 201.401 18.57C202.101 17.93 202.771 17.1 203.411 16.08C204.071 15.04 204.661 13.94 205.181 12.78C205.361 12.38 205.581 11.84 205.841 11.16C206.101 10.46 206.351 9.71 206.591 8.91C206.851 8.09 207.061 7.3 207.221 6.54C207.401 5.76 207.491 5.1 207.491 4.56C207.491 3.78 207.281 3.39 206.861 3.39C206.701 3.39 206.531 3.43 206.351 3.51C206.191 3.57 206.011 3.6 205.811 3.6C205.751 3.6 205.671 3.59 205.571 3.57C205.491 3.53 205.451 3.47 205.451 3.39C205.451 3.19 205.571 3.01 205.811 2.85C206.051 2.69 206.321 2.56 206.621 2.46C206.941 2.36 207.181 2.31 207.341 2.31C207.941 2.31 208.371 2.52 208.631 2.94C208.911 3.34 209.051 3.89 209.051 4.59C209.051 5.41 208.891 6.38 208.571 7.5C208.251 8.62 207.811 9.79 207.251 11.01C206.691 12.23 206.051 13.43 205.331 14.61C204.611 15.77 203.851 16.83 203.051 17.79C202.271 18.73 201.481 19.48 200.681 20.04C199.901 20.6 199.161 20.88 198.461 20.88C197.781 20.88 197.241 20.68 196.841 20.28C196.461 19.86 196.191 19.31 196.031 18.63C195.871 17.93 195.791 17.15 195.791 16.29C195.791 15.31 195.871 14.29 196.031 13.23C196.191 12.15 196.381 11.12 196.601 10.14C196.821 9.14 197.041 8.27 197.261 7.53C197.481 6.77 197.651 6.22 197.771 5.88C197.271 6.44 196.631 7.2 195.851 8.16C195.071 9.1 194.251 10.14 193.391 11.28C192.551 12.42 191.751 13.58 190.991 14.76C190.231 15.94 189.611 17.06 189.131 18.12C188.671 19.16 188.441 20.06 188.441 20.82C188.441 20.92 188.451 21.03 188.471 21.15C188.511 21.27 188.601 21.33 188.741 21.33C189.101 21.33 189.281 21.41 189.281 21.57C189.281 21.73 189.151 21.81 188.891 21.81ZM211.304 21.27C211.124 21.27 210.914 21.19 210.674 21.03C210.454 20.87 210.264 20.69 210.104 20.49C209.944 20.27 209.864 20.07 209.864 19.89C209.864 19.59 209.974 19.19 210.194 18.69C210.414 18.17 210.664 17.66 210.944 17.16C211.244 16.66 211.474 16.29 211.634 16.05C211.354 16.29 210.994 16.68 210.554 17.22C210.134 17.74 209.674 18.3 209.174 18.9C208.694 19.48 208.224 19.98 207.764 20.4C207.324 20.82 206.944 21.03 206.624 21.03C206.184 21.03 205.824 20.88 205.544 20.58C205.284 20.26 205.154 19.88 205.154 19.44C205.154 18.84 205.324 18.2 205.664 17.52C206.004 16.82 206.444 16.15 206.984 15.51C207.544 14.85 208.144 14.25 208.784 13.71C209.444 13.17 210.084 12.74 210.704 12.42C211.344 12.1 211.914 11.94 212.414 11.94C212.954 11.94 213.394 12.07 213.734 12.33C214.074 12.57 214.244 12.94 214.244 13.44C214.244 13.52 214.224 13.67 214.184 13.89C214.164 14.11 214.094 14.22 213.974 14.22C213.914 14.22 213.814 14.13 213.674 13.95C213.554 13.77 213.384 13.59 213.164 13.41C212.944 13.23 212.664 13.14 212.324 13.14C211.764 13.14 211.174 13.35 210.554 13.77C209.954 14.17 209.374 14.69 208.814 15.33C208.254 15.95 207.764 16.59 207.344 17.25C206.924 17.91 206.604 18.48 206.384 18.96C206.324 19.1 206.264 19.25 206.204 19.41C206.164 19.57 206.144 19.73 206.144 19.89C206.144 20.07 206.194 20.16 206.294 20.16C206.394 20.16 206.604 20.05 206.924 19.83C207.264 19.61 207.504 19.45 207.644 19.35C208.344 18.85 209.004 18.28 209.624 17.64C210.264 17 210.834 16.34 211.334 15.66C211.494 15.44 211.644 15.22 211.784 15C211.924 14.78 212.064 14.57 212.204 14.37C212.304 14.23 212.404 14.16 212.504 14.16C212.724 14.16 212.934 14.31 213.134 14.61C213.354 14.91 213.464 15.17 213.464 15.39C213.464 15.49 213.444 15.55 213.404 15.57C213.384 15.59 213.324 15.65 213.224 15.75C212.924 16.05 212.624 16.47 212.324 17.01C212.044 17.55 211.794 18.1 211.574 18.66C211.374 19.2 211.224 19.66 211.124 20.04C211.104 20.1 211.084 20.18 211.064 20.28C211.064 20.36 211.114 20.39 211.214 20.37C211.414 20.31 211.734 20.09 212.174 19.71C212.634 19.31 213.124 18.86 213.644 18.36C214.184 17.84 214.664 17.36 215.084 16.92C215.524 16.48 215.814 16.17 215.954 15.99C215.994 15.95 216.034 15.91 216.074 15.87C216.134 15.81 216.194 15.78 216.254 15.78C216.394 15.78 216.464 15.85 216.464 15.99C216.464 16.07 216.304 16.31 215.984 16.71C215.664 17.09 215.264 17.54 214.784 18.06C214.304 18.56 213.814 19.06 213.314 19.56C212.814 20.04 212.374 20.45 211.994 20.79C211.634 21.11 211.404 21.27 211.304 21.27ZM227.008 21.36C226.788 21.36 226.528 21.27 226.228 21.09C225.928 20.93 225.658 20.73 225.418 20.49C225.198 20.23 225.088 19.97 225.088 19.71C225.088 19.37 225.228 18.94 225.508 18.42C225.788 17.9 226.128 17.36 226.528 16.8C226.948 16.24 227.348 15.72 227.728 15.24C228.128 14.74 228.448 14.34 228.688 14.04C228.968 13.68 229.098 13.48 229.078 13.44C229.058 13.38 229.048 13.32 229.048 13.26C228.488 13.54 227.858 13.96 227.158 14.52C226.458 15.06 225.788 15.63 225.148 16.23C224.508 16.83 223.988 17.37 223.588 17.85C223.308 18.17 223.038 18.51 222.778 18.87C222.538 19.21 222.298 19.56 222.058 19.92C221.918 20.12 221.738 20.33 221.518 20.55C221.318 20.77 221.088 20.88 220.828 20.88C220.688 20.88 220.558 20.83 220.438 20.73C220.338 20.63 220.288 20.51 220.288 20.37C220.288 20.09 220.468 19.67 220.828 19.11C221.208 18.53 221.598 17.9 221.998 17.22C222.258 16.78 222.538 16.33 222.838 15.87C223.158 15.39 223.428 14.96 223.648 14.58C223.888 14.2 224.008 13.94 224.008 13.8H223.978C223.918 13.8 223.778 13.85 223.558 13.95C223.358 14.05 223.248 14.11 223.228 14.13C222.248 14.79 221.308 15.61 220.408 16.59C219.528 17.57 218.718 18.5 217.978 19.38C217.838 19.56 217.688 19.75 217.528 19.95C217.368 20.13 217.208 20.31 217.048 20.49C216.968 20.57 216.858 20.64 216.718 20.7C216.578 20.74 216.448 20.76 216.328 20.76C216.208 20.76 216.038 20.72 215.818 20.64C215.618 20.56 215.518 20.42 215.518 20.22C215.518 19.98 215.628 19.63 215.848 19.17C216.068 18.71 216.338 18.19 216.658 17.61C216.998 17.03 217.348 16.46 217.708 15.9C218.088 15.32 218.428 14.8 218.728 14.34C219.048 13.86 219.278 13.51 219.418 13.29C218.798 13.83 218.238 14.33 217.738 14.79C217.258 15.23 216.708 15.83 216.088 16.59C216.048 16.63 215.968 16.71 215.848 16.83C215.728 16.95 215.608 17.02 215.488 17.04C215.448 17.04 215.398 17.01 215.338 16.95C215.298 16.89 215.288 16.84 215.308 16.8C215.328 16.7 215.468 16.5 215.728 16.2C215.988 15.88 216.308 15.52 216.688 15.12C217.068 14.72 217.448 14.32 217.828 13.92C218.208 13.52 218.538 13.17 218.818 12.87C219.118 12.57 219.298 12.38 219.358 12.3C219.798 11.84 220.188 11.47 220.528 11.19C220.888 10.91 221.228 10.77 221.548 10.77C221.728 10.77 221.938 10.85 222.178 11.01C222.418 11.17 222.538 11.36 222.538 11.58C222.538 11.66 222.518 11.71 222.478 11.73C221.578 12.47 220.778 13.32 220.078 14.28C219.378 15.22 218.718 16.16 218.098 17.1C218.078 17.12 218.008 17.23 217.888 17.43C217.788 17.63 217.668 17.85 217.528 18.09C217.388 18.33 217.268 18.54 217.168 18.72C217.068 18.9 217.028 18.98 217.048 18.96C218.108 17.96 219.218 16.9 220.378 15.78C221.558 14.64 222.698 13.61 223.798 12.69C223.958 12.55 224.138 12.43 224.338 12.33C224.538 12.23 224.748 12.18 224.968 12.18C225.208 12.18 225.398 12.26 225.538 12.42C225.698 12.56 225.778 12.75 225.778 12.99C225.778 13.25 225.698 13.51 225.538 13.77C225.378 14.03 225.228 14.27 225.088 14.49C224.888 14.85 224.668 15.21 224.428 15.57C224.208 15.93 224.048 16.22 223.948 16.44C224.868 15.62 225.748 14.83 226.588 14.07C227.428 13.29 228.278 12.62 229.138 12.06C229.338 11.92 229.578 11.85 229.858 11.85C230.038 11.85 230.268 11.88 230.548 11.94C230.848 12 231.108 12.09 231.328 12.21C231.568 12.33 231.688 12.5 231.688 12.72C231.688 12.84 231.648 12.96 231.568 13.08C231.488 13.18 231.398 13.27 231.298 13.35L229.888 14.55C229.628 14.79 229.308 15.13 228.928 15.57C228.568 15.99 228.208 16.46 227.848 16.98C227.508 17.48 227.218 18 226.978 18.54C226.758 19.08 226.648 19.58 226.648 20.04C226.648 20.32 226.718 20.46 226.858 20.46C226.938 20.46 227.028 20.44 227.128 20.4C227.228 20.34 227.338 20.28 227.458 20.22C227.878 19.98 228.328 19.63 228.808 19.17C229.288 18.71 229.758 18.22 230.218 17.7C230.698 17.18 231.118 16.72 231.478 16.32C231.838 15.92 232.108 15.67 232.288 15.57C232.328 15.53 232.378 15.52 232.438 15.54C232.518 15.56 232.558 15.6 232.558 15.66C232.558 15.74 232.518 15.83 232.438 15.93C232.358 16.03 232.298 16.11 232.258 16.17C231.918 16.57 231.598 16.96 231.298 17.34C231.018 17.7 230.698 18.08 230.338 18.48C229.918 18.96 229.448 19.47 228.928 20.01C228.428 20.53 227.898 20.95 227.338 21.27C227.258 21.33 227.148 21.36 227.008 21.36ZM237.308 21.48C236.388 21.48 235.748 21.18 235.388 20.58C235.028 19.98 234.848 19.25 234.848 18.39C234.848 17.91 234.888 17.42 234.968 16.92C235.048 16.4 235.148 15.89 235.268 15.39C235.028 15.53 234.738 15.75 234.398 16.05C234.058 16.35 233.668 16.73 233.228 17.19C232.888 17.87 232.588 18.53 232.328 19.17C232.068 19.79 231.778 20.36 231.458 20.88C231.398 20.96 231.318 21.01 231.218 21.03C231.118 21.05 231.018 21.06 230.918 21.06C230.498 21.06 230.288 20.87 230.288 20.49C230.288 20.05 230.508 19.63 230.948 19.23L233.108 15.39C232.928 15.53 232.758 15.68 232.598 15.84C232.438 16 232.258 16.17 232.058 16.35C231.978 16.43 231.888 16.47 231.788 16.47C231.707 16.47 231.667 16.43 231.667 16.35C231.667 16.27 231.718 16.16 231.818 16.02C232.278 15.44 232.838 14.8 233.498 14.1C234.178 13.38 234.918 12.41 235.718 11.19C235.978 10.79 236.348 10.29 236.828 9.69C237.308 9.09 237.828 8.45 238.388 7.77C238.968 7.09 239.548 6.45 240.128 5.85C240.708 5.23 241.218 4.71 241.658 4.29C241.878 4.11 242.068 3.96 242.228 3.84C242.388 3.72 242.508 3.65 242.588 3.63C242.768 3.63 242.938 3.73 243.098 3.93C243.258 4.13 243.348 4.34 243.368 4.56C243.368 4.78 243.288 4.93 243.128 5.01C242.888 5.21 242.658 5.39 242.438 5.55C242.238 5.71 242.028 5.89 241.808 6.09C241.268 6.57 240.668 7.16 240.008 7.86C239.348 8.56 238.678 9.31 237.998 10.11C237.338 10.91 236.698 11.72 236.078 12.54C235.478 13.34 234.948 14.1 234.488 14.82C234.528 14.86 234.568 14.88 234.608 14.88C234.668 14.88 234.738 14.85 234.818 14.79C234.918 14.71 235.038 14.61 235.178 14.49C235.878 13.89 236.638 13.28 237.458 12.66C238.278 12.02 239.068 11.44 239.828 10.92C240.048 10.78 240.268 10.66 240.488 10.56C240.728 10.44 240.978 10.38 241.238 10.38C241.398 10.38 241.548 10.41 241.688 10.47C241.848 10.51 241.968 10.59 242.048 10.71C242.248 10.77 242.438 10.87 242.618 11.01C242.818 11.15 242.918 11.34 242.918 11.58C242.918 11.88 242.768 12.17 242.468 12.45C242.168 12.71 241.908 12.92 241.688 13.08C241.008 13.52 240.208 13.9 239.288 14.22C238.388 14.52 237.508 14.75 236.648 14.91C236.508 15.53 236.378 16.17 236.258 16.83C236.158 17.47 236.108 18.06 236.108 18.6C236.108 19.16 236.178 19.62 236.318 19.98C236.458 20.34 236.718 20.52 237.098 20.52C237.318 20.52 237.588 20.42 237.908 20.22C238.248 20 238.588 19.75 238.928 19.47C239.288 19.17 239.608 18.88 239.888 18.6C240.188 18.32 240.418 18.11 240.578 17.97C240.758 17.81 241.018 17.57 241.358 17.25C241.698 16.93 242.028 16.61 242.348 16.29C242.688 15.97 242.918 15.74 243.038 15.6C243.058 15.58 243.088 15.57 243.128 15.57C243.228 15.57 243.278 15.64 243.278 15.78C243.278 15.94 243.158 16.15 242.918 16.41L242.408 16.98C241.588 17.9 240.778 18.78 239.978 19.62C239.198 20.44 238.508 21.01 237.908 21.33C237.708 21.43 237.508 21.48 237.308 21.48ZM236.858 14.13C237.078 14.09 237.418 14 237.878 13.86C238.338 13.72 238.808 13.54 239.288 13.32C239.788 13.1 240.218 12.87 240.578 12.63C240.958 12.37 241.178 12.11 241.238 11.85C241.178 11.71 241.068 11.64 240.908 11.64C240.768 11.64 240.508 11.75 240.128 11.97C239.748 12.17 239.338 12.42 238.898 12.72C238.458 13 238.048 13.28 237.668 13.56C237.288 13.82 237.018 14.01 236.858 14.13ZM243.467 20.73C242.267 20.73 241.667 20.14 241.667 18.96C241.667 18.5 241.787 17.97 242.027 17.37C242.287 16.75 242.627 16.13 243.047 15.51C243.467 14.89 243.937 14.32 244.457 13.8C244.977 13.26 245.507 12.83 246.047 12.51C246.607 12.17 247.127 12 247.607 12C247.767 12 247.877 12.04 247.937 12.12C248.017 12.18 248.077 12.29 248.117 12.45C248.157 12.53 248.187 12.62 248.207 12.72C248.227 12.82 248.257 12.92 248.297 13.02C248.377 13.16 248.447 13.3 248.507 13.44C248.567 13.58 248.597 13.73 248.597 13.89C248.597 14.09 248.547 14.27 248.447 14.43C248.347 14.57 248.227 14.7 248.087 14.82C247.887 15 247.587 15.23 247.187 15.51C246.787 15.77 246.347 16.04 245.867 16.32C245.407 16.58 244.957 16.81 244.517 17.01C244.097 17.21 243.757 17.33 243.497 17.37C243.317 17.65 243.127 18 242.927 18.42C242.747 18.82 242.657 19.19 242.657 19.53C242.657 19.71 242.697 19.87 242.777 20.01C242.877 20.15 243.027 20.22 243.227 20.22C243.547 20.22 243.967 20.07 244.487 19.77C245.027 19.45 245.587 19.07 246.167 18.63C246.747 18.17 247.277 17.73 247.757 17.31C248.257 16.87 248.627 16.53 248.867 16.29L249.827 15.27C249.947 15.15 250.077 15.09 250.217 15.09C250.337 15.09 250.397 15.14 250.397 15.24C250.397 15.36 250.227 15.61 249.887 15.99C249.547 16.35 249.137 16.76 248.657 17.22C248.197 17.66 247.767 18.07 247.367 18.45C246.967 18.81 246.707 19.04 246.587 19.14C246.167 19.5 245.687 19.86 245.147 20.22C244.607 20.56 244.047 20.73 243.467 20.73ZM244.007 16.59C244.207 16.47 244.507 16.28 244.907 16.02C245.327 15.76 245.757 15.47 246.197 15.15C246.637 14.83 247.007 14.51 247.307 14.19C247.627 13.87 247.787 13.59 247.787 13.35C247.787 13.29 247.777 13.24 247.757 13.2C247.737 13.18 247.697 13.17 247.637 13.17C247.377 13.17 247.067 13.31 246.707 13.59C246.347 13.87 245.987 14.21 245.627 14.61C245.267 14.99 244.937 15.37 244.637 15.75C244.357 16.11 244.147 16.39 244.007 16.59ZM250.001 20.73C248.801 20.73 248.201 20.14 248.201 18.96C248.201 18.5 248.321 17.97 248.561 17.37C248.821 16.75 249.161 16.13 249.581 15.51C250.001 14.89 250.471 14.32 250.991 13.8C251.511 13.26 252.041 12.83 252.581 12.51C253.141 12.17 253.661 12 254.141 12C254.301 12 254.411 12.04 254.471 12.12C254.551 12.18 254.611 12.29 254.651 12.45C254.691 12.53 254.721 12.62 254.741 12.72C254.761 12.82 254.791 12.92 254.831 13.02C254.911 13.16 254.981 13.3 255.041 13.44C255.101 13.58 255.131 13.73 255.131 13.89C255.131 14.09 255.081 14.27 254.981 14.43C254.881 14.57 254.761 14.7 254.621 14.82C254.421 15 254.121 15.23 253.721 15.51C253.321 15.77 252.881 16.04 252.401 16.32C251.941 16.58 251.491 16.81 251.051 17.01C250.631 17.21 250.291 17.33 250.031 17.37C249.851 17.65 249.661 18 249.461 18.42C249.281 18.82 249.191 19.19 249.191 19.53C249.191 19.71 249.231 19.87 249.311 20.01C249.411 20.15 249.561 20.22 249.761 20.22C250.081 20.22 250.501 20.07 251.021 19.77C251.561 19.45 252.121 19.07 252.701 18.63C253.281 18.17 253.811 17.73 254.291 17.31C254.791 16.87 255.161 16.53 255.401 16.29L256.361 15.27C256.481 15.15 256.611 15.09 256.751 15.09C256.871 15.09 256.931 15.14 256.931 15.24C256.931 15.36 256.761 15.61 256.421 15.99C256.081 16.35 255.671 16.76 255.191 17.22C254.731 17.66 254.301 18.07 253.901 18.45C253.501 18.81 253.241 19.04 253.121 19.14C252.701 19.5 252.221 19.86 251.681 20.22C251.141 20.56 250.581 20.73 250.001 20.73ZM250.541 16.59C250.741 16.47 251.041 16.28 251.441 16.02C251.861 15.76 252.291 15.47 252.731 15.15C253.171 14.83 253.541 14.51 253.841 14.19C254.161 13.87 254.321 13.59 254.321 13.35C254.321 13.29 254.311 13.24 254.291 13.2C254.271 13.18 254.231 13.17 254.171 13.17C253.911 13.17 253.601 13.31 253.241 13.59C252.881 13.87 252.521 14.21 252.161 14.61C251.801 14.99 251.471 15.37 251.171 15.75C250.891 16.11 250.681 16.39 250.541 16.59ZM261.094 21.33C260.794 21.33 260.454 21.24 260.074 21.06C259.714 20.9 259.534 20.64 259.534 20.28C259.534 19.86 259.694 19.36 260.014 18.78C260.334 18.2 260.714 17.6 261.154 16.98C261.594 16.34 262.014 15.73 262.414 15.15C262.834 14.57 263.134 14.08 263.314 13.68C263.194 13.74 262.994 13.86 262.714 14.04C262.454 14.2 262.194 14.37 261.934 14.55C261.674 14.71 261.484 14.84 261.364 14.94C260.504 15.58 259.754 16.24 259.114 16.92C258.494 17.6 257.864 18.38 257.224 19.26C257.064 19.5 256.894 19.75 256.714 20.01C256.554 20.27 256.384 20.52 256.204 20.76C256.124 20.86 255.984 20.96 255.784 21.06C255.604 21.16 255.434 21.21 255.274 21.21C255.014 21.21 254.884 21.07 254.884 20.79C254.884 20.55 255.004 20.18 255.244 19.68C255.504 19.18 255.824 18.61 256.204 17.97C256.584 17.33 256.984 16.7 257.404 16.08C257.824 15.44 258.204 14.87 258.544 14.37C258.884 13.85 259.124 13.48 259.264 13.26C259.224 13.32 259.114 13.43 258.934 13.59C258.754 13.73 258.574 13.88 258.394 14.04C258.234 14.18 258.114 14.28 258.034 14.34C257.654 14.7 257.284 15.07 256.924 15.45C256.564 15.83 256.204 16.21 255.844 16.59C255.804 16.63 255.724 16.69 255.604 16.77C255.504 16.85 255.414 16.89 255.334 16.89C255.234 16.89 255.184 16.84 255.184 16.74C255.184 16.64 255.324 16.43 255.604 16.11C255.884 15.79 256.234 15.41 256.654 14.97C257.074 14.53 257.504 14.08 257.944 13.62C258.404 13.16 258.804 12.75 259.144 12.39C259.484 12.03 259.714 11.78 259.834 11.64C260.034 11.38 260.244 11.17 260.464 11.01C260.704 10.85 260.984 10.77 261.304 10.77C261.484 10.77 261.704 10.86 261.964 11.04C262.224 11.2 262.354 11.39 262.354 11.61C262.354 11.69 262.334 11.74 262.294 11.76C261.694 12.26 261.104 12.85 260.524 13.53C259.964 14.21 259.434 14.91 258.934 15.63C258.434 16.35 257.974 17.02 257.554 17.64C258.034 17.1 258.574 16.57 259.174 16.05C259.774 15.51 260.354 15.01 260.914 14.55L263.044 12.81C263.184 12.69 263.324 12.56 263.464 12.42C263.624 12.28 263.774 12.16 263.914 12.06C264.074 11.96 264.244 11.92 264.424 11.94C264.624 11.94 264.824 11.94 265.024 11.94C265.244 11.94 265.454 12 265.654 12.12C265.874 12.24 265.984 12.43 265.984 12.69C265.984 12.95 265.914 13.15 265.774 13.29C265.654 13.41 265.514 13.55 265.354 13.71C265.014 14.03 264.594 14.45 264.094 14.97C263.614 15.49 263.134 16.05 262.654 16.65C262.174 17.25 261.774 17.86 261.454 18.48C261.134 19.08 260.974 19.64 260.974 20.16C260.974 20.22 260.974 20.28 260.974 20.34C260.974 20.4 260.984 20.46 261.004 20.52C261.424 20.36 261.884 20.1 262.384 19.74C262.904 19.36 263.424 18.94 263.944 18.48C264.464 18.02 264.944 17.56 265.384 17.1C265.844 16.64 266.224 16.23 266.524 15.87C266.564 15.83 266.604 15.78 266.644 15.72C266.704 15.66 266.774 15.63 266.854 15.63C266.954 15.63 267.004 15.7 267.004 15.84C267.004 15.92 266.974 16.01 266.914 16.11C266.534 16.61 266.024 17.2 265.384 17.88C264.744 18.56 264.084 19.21 263.404 19.83C262.724 20.43 262.114 20.89 261.574 21.21C261.434 21.29 261.274 21.33 261.094 21.33Z" fill="black"/>
</svg>
